<svg xmlns="http://www.w3.org/2000/svg" viewBox="0 0 617.42 244.91"><defs><style>.cls-1{fill:#45a4ad;}.cls-2,.cls-5{fill:#fff;}.cls-2{stroke:#fff;}.cls-3{fill:#e0d16c;}.cls-4{fill:#d4cb68;}</style></defs><title>Asset 1</title><g id="Layer_2" data-name="Layer 2"><g id="Layer_1-2" data-name="Layer 1"><path class="cls-1" d="M308.71,244.91c-2.39-14-23.77-17-21.76-34.29-3.69,1.24-5.84,6.73-7.08,10.42-11-4-12.91-11.58-10.41-22.83,0,0,15.75-7.25,18.41-25.5C292,144.44,275,122,247.55,124c-5.34,0-8.52,1.6-9.64,5.26-1.71,5.62,5.31,9.22,9.85,6.56s3.13-6.72.79-7.82a20.59,20.59,0,0,1,11.47-.15c8.69,0,29.06,14.5,24.65,44.35-4.46,30.14-44.5,28.54-44.5,28.54,8.2-2.87,11-19.66-9-20.11-18.47-.41-24.63-19.28-24.63-19.28-8.21,7-1.23,20.11-1.23,20.11-11.08-2.06-25.74-.78-33.41-32.12-5.33,11.67-12.55,9.35-12.55,9.35-7.17-2-7.65-8.63-8.83-12.95,0,0,4,26.64-26.47,28.22-16.75.87-21.5-8.5-32.29,5.6-8-22.51,4.1-49.13,22.67-51.71a20.59,20.59,0,0,1,11.47.15c-2.34,1.1-3.75,5.17.78,7.82s10.81-1.14,9.85-6.56c-.66-3.77-3.2-5.41-8.67-5.71-32.28-2.7-42.37,24.13-41.25,43.75a46,46,0,0,0,4.63,19.13c-1.83-.61-18.56-6.47-11.81-28-11.25,15.75-24.89,14-31.07,6.84-2.75-3.19-4.41-10.4-3.69-16.08-6.52,2.32-12.43-4-19.43-13C18.81,128,11.08,124.71,0,122.46c11.08-2.25,18.81-5.53,25.21-13.75,7-9,12.91-15.37,19.43-13-.72-5.68.94-12.89,3.69-16.08,6.18-7.16,19.82-8.91,31.07,6.84-6.75-21.5,10-27.36,11.81-28a45.91,45.91,0,0,0-4.63,19.12c-1.12,19.63,9,46.45,41.25,43.75,5.47-.3,8-1.94,8.67-5.71,1-5.41-5.31-9.22-9.85-6.56s-3.12,6.72-.78,7.82a20.59,20.59,0,0,1-11.47.15c-18.57-2.57-30.69-29.2-22.67-51.71,10.79,14.1,15.54,4.73,32.29,5.6,30.49,1.58,26.47,28.22,26.47,28.22,1.18-4.32,1.66-11,8.83-13,0,0,7.22-2.32,12.55,9.35,7.67-31.33,22.33-30.06,33.41-32.11,0,0-7,13.13,1.23,20.11,0,0,6.16-18.88,24.63-19.29,20-.45,17.23-17.24,9-20.11,0,0,40-1.6,44.5,28.54,4.41,29.86-16,44.35-24.65,44.35a20.59,20.59,0,0,1-11.47-.15c2.34-1.1,3.75-5.17-.79-7.82s-11.56.94-9.85,6.56c1.12,3.66,4.3,5.27,9.64,5.26C275,123,292,100.47,287.87,72.21c-2.66-18.25-18.41-25.5-18.41-25.5-2.5-11.25-.59-18.84,10.41-22.84,1.24,3.7,3.39,9.19,7.08,10.42C284.94,17.05,306.32,14,308.71,0c2.38,14,23.77,17.05,21.76,34.29,3.69-1.23,5.84-6.72,7.07-10.42,11,4,12.92,11.59,10.42,22.84,0,0-15.75,7.25-18.42,25.5-4.13,28.26,12.92,50.75,40.32,48.67,5.35,0,8.53-1.6,9.64-5.26,1.72-5.62-5.31-9.22-9.85-6.56s-3.12,6.72-.78,7.82a20.59,20.59,0,0,1-11.47.15c-8.69,0-29.07-14.49-24.65-44.35,4.46-30.14,44.5-28.54,44.5-28.54-8.21,2.87-11,19.66,9,20.11,18.47.41,24.62,19.29,24.62,19.29,8.21-7,1.24-20.11,1.24-20.11,11.08,2.05,25.73.78,33.4,32.11,5.33-11.67,12.55-9.35,12.55-9.35,7.17,2,7.66,8.63,8.84,13,0,0-4-26.64,26.47-28.22,16.75-.87,21.5,8.5,32.29-5.6,8,22.51-4.11,49.14-22.67,51.71a20.59,20.59,0,0,1-11.47-.15c2.34-1.1,3.75-5.17-.79-7.82s-10.8,1.15-9.85,6.56c.67,3.77,3.2,5.41,8.67,5.71C521.86,124,532,97.21,530.83,77.58a45.72,45.72,0,0,0-4.62-19.12c1.83.6,18.56,6.46,11.81,28,11.25-15.75,24.88-14,31.06-6.84,2.75,3.19,4.42,10.4,3.7,16.08,6.52-2.32,12.43,4,19.43,13,6.39,8.22,14.12,11.5,25.21,13.75-11.09,2.25-18.82,5.52-25.21,13.75-7,9-12.91,15.36-19.43,13,.72,5.68-.95,12.89-3.7,16.08-6.18,7.16-19.81,8.91-31.06-6.84,6.75,21.5-10,27.36-11.81,28a45.76,45.76,0,0,0,4.62-19.13c1.13-19.62-9-46.45-41.25-43.75-5.47.3-8,1.94-8.67,5.71-1,5.42,5.31,9.22,9.85,6.56s3.13-6.72.79-7.82a20.59,20.59,0,0,1,11.47-.15c18.56,2.58,30.69,29.2,22.67,51.71-10.79-14.1-15.54-4.73-32.29-5.6-30.49-1.58-26.47-28.22-26.47-28.22-1.18,4.32-1.67,11-8.84,12.95,0,0-7.22,2.32-12.55-9.35-7.67,31.34-22.32,30.06-33.4,32.12,0,0,7-13.14-1.24-20.11,0,0-6.15,18.87-24.62,19.28-20,.45-17.24,17.24-9,20.11,0,0-40,1.6-44.5-28.54-4.42-29.85,16-44.35,24.65-44.35a20.59,20.59,0,0,1,11.47.15c-2.34,1.1-3.75,5.17.78,7.82s11.57-.94,9.85-6.56c-1.11-3.66-4.29-5.27-9.64-5.26-27.4-2.07-44.45,20.41-40.32,48.68C332.21,191,348,198.21,348,198.21c2.5,11.25.58,18.83-10.42,22.83-1.23-3.69-3.38-9.18-7.07-10.42C332.48,227.86,311.09,230.88,308.71,244.91Z"/><path class="cls-2" d="M381.89,123.71s0,19.45,16.95,19.45c5,0,10.36-5.82,13.88,4.58.74-.25,7.58-4.18,3.17-11.21,4.5,5.66,10.11,5.72,13.28,2.56,1.67-1.68,1.71-3.56,1.43-5.83,7.25,3.41,15.65.58,18.91-.59,4.38-1.56,8.6-7.53,12.5-9-3.9-1.46-8-6.75-12.88-9-3.15-1.45-13.62-4-18.53-.52.28-2.27.24-4.15-1.43-5.83-3.17-3.16-8.78-3.1-13.28,2.56,4.41-7-2.43-11-3.17-11.2-3.52,10.39-8.88,4.57-13.88,4.57C382,104.25,381.89,123.71,381.89,123.71Z"/><path class="cls-3" d="M513.83,122.49c9.13,1.59,17,10.84,17,10.84,4.94,0,11.32-2.5,14.19,13,.73-.19,12.13-4,8.07-13.44,4.31,7.69,11.39,9,17.49,6,0,0-6.5-3-7-7.75,0,0,4.5,6.25,10.5,3.5s3-7.25,8.87-8.12,5.49-2.84,9.38-4c-3.89-1.17-3.5-3.13-9.38-4s-2.87-5.37-8.87-8.12-10.5,3.5-10.5,3.5c.5-4.75,7-7.75,7-7.75-6.1-3-13.18-1.72-17.49,6,4.06-9.44-7.34-13.24-8.07-13.44-2.87,15.5-10.12,13-15.06,13A31.41,31.41,0,0,1,513.83,122.49Z"/><path class="cls-2" d="M235.52,123.71s0,19.45-17,19.45c-5,0-10.36-5.82-13.88,4.58-.73-.25-7.57-4.18-3.17-11.21-4.5,5.66-10.11,5.72-13.27,2.56-1.68-1.68-1.72-3.56-1.43-5.83-7.25,3.41-15.65.58-18.92-.59-4.38-1.56-8.6-7.53-12.5-9,3.9-1.46,8-6.75,12.88-9,3.16-1.45,13.62-4,18.54-.52-.29-2.27-.25-4.15,1.43-5.83,3.16-3.16,8.77-3.1,13.27,2.56-4.4-7,2.44-11,3.17-11.2,3.52,10.39,8.89,4.57,13.88,4.57C235.4,104.25,235.52,123.71,235.52,123.71Z"/><path class="cls-4" d="M103.58,122.49c-9.12,1.59-17,10.84-17,10.84-4.93,0-11.31-2.5-14.18,13-.74-.19-12.13-4-8.07-13.44-4.31,7.69-11.39,9-17.5,6,0,0,6.5-3,7-7.75,0,0-4.5,6.25-10.5,3.5s-3-7.25-8.87-8.12-5.48-2.84-9.38-4c3.9-1.17,3.5-3.13,9.38-4s2.87-5.37,8.87-8.12,10.5,3.5,10.5,3.5c-.5-4.75-7-7.75-7-7.75,6.11-3,13.19-1.72,17.5,6-4.06-9.44,7.33-13.24,8.07-13.44,2.87,15.5,10.12,13,15.06,13A31.35,31.35,0,0,0,103.58,122.49Z"/><path class="cls-5" d="M305.69,136.5a13,13,0,0,1-9.51-15.83A13.06,13.06,0,1,1,321.52,127,13,13,0,0,1,305.69,136.5Z"/><path class="cls-4" d="M307.29,42.77a5.61,5.61,0,0,1-4.11-6.84,5.64,5.64,0,0,1,10.95,2.73A5.6,5.6,0,0,1,307.29,42.77Z"/><path class="cls-4" d="M307.29,216.71a5.61,5.61,0,0,1-4.11-6.84,5.64,5.64,0,0,1,10.95,2.73A5.61,5.61,0,0,1,307.29,216.71Z"/></g></g></svg>